HIERARCHY
ROOT Hips
{
    OFFSET   0.000000   0.000000   0.000000
    CHANNELS 6 Xposition Yposition Zposition Zrotation Xrotation Yrotation
    JOINT Chest
    {
        OFFSET   0.000000   8.007230   0.000000
        CHANNELS 3 Zrotation Xrotation Yrotation
        JOINT Chest2
        {
            OFFSET   0.000000  22.077100   0.000000
            CHANNELS 3 Zrotation Xrotation Yrotation
            JOINT Neck
            {
                OFFSET   0.000000  23.255100   0.000000
                CHANNELS 3 Zrotation Xrotation Yrotation
                JOINT Head
                {
                    OFFSET   0.000000  14.370100   1.956600
                    CHANNELS 3 Zrotation Xrotation Yrotation
                    End Site
                    {
                        OFFSET   0.000000  19.566000   0.000000
                    }
                }
            }
            JOINT LeftCollar
            {
                OFFSET   3.911900  19.017000  -0.467063
                CHANNELS 3 Zrotation Xrotation Yrotation
                JOINT LeftShoulder
                {
                    OFFSET  10.383700   0.000000   0.000000
                    CHANNELS 3 Zrotation Xrotation Yrotation
                    JOINT LeftElbow
                    {
                        OFFSET  26.662100   0.001193   0.000980
                        CHANNELS 3 Zrotation Xrotation Yrotation
                        JOINT LeftWrist
                        {
                            OFFSET  28.869000  -0.000059  -0.000082
                            CHANNELS 3 Zrotation Xrotation Yrotation
                            JOINT LeftFinger0
                            {
                                OFFSET   2.044650  -2.323450   3.252850
                                CHANNELS 3 Zrotation Xrotation Yrotation
                                JOINT LeftFinger01
                                {
                                    OFFSET   3.088130   0.000000   0.000000
                                    CHANNELS 3 Zrotation Xrotation Yrotation
                                    JOINT LeftFinger02
                                    {
                                        OFFSET   2.639460   0.000000   0.000000
                                        CHANNELS 3 Zrotation Xrotation Yrotation
                                        End Site
                                        {
                                            OFFSET   2.582190   0.000000   0.000000
                                        }
                                    }
                                }
                            }
                            JOINT LeftFinger1
                            {
                                OFFSET   8.364480   0.000000   3.252850
                                CHANNELS 3 Zrotation Xrotation Yrotation
                                JOINT LeftFinger11
                                {
                                    OFFSET   4.646930   0.000000   0.000000
                                    CHANNELS 3 Zrotation Xrotation Yrotation
                                    JOINT LeftFinger12
                                    {
                                        OFFSET   2.323470   0.000000   0.000000
                                        CHANNELS 3 Zrotation Xrotation Yrotation
                                        End Site
                                        {
                                            OFFSET   2.273050   0.000000   0.000000
                                        }
                                    }
                                }
                            }
                            JOINT LeftFinger2
                            {
                                OFFSET   8.364490   0.000016   1.078090
                                CHANNELS 3 Zrotation Xrotation Yrotation
                                JOINT LeftFinger21
                                {
                                    OFFSET   5.111610   0.000000   0.000000
                                    CHANNELS 3 Zrotation Xrotation Yrotation
                                    JOINT LeftFinger22
                                    {
                                        OFFSET   2.788150   0.000016   0.000000
                                        CHANNELS 3 Zrotation Xrotation Yrotation
                                        End Site
                                        {
                                            OFFSET   2.727660   0.000000   0.000000
                                        }
                                    }
                                }
                            }
                            JOINT LeftFinger3
                            {
                                OFFSET   7.899780   0.000015  -1.078090
                                CHANNELS 3 Zrotation Xrotation Yrotation
                                JOINT LeftFinger31
                                {
                                    OFFSET   4.646930   0.000000   0.000000
                                    CHANNELS 3 Zrotation Xrotation Yrotation
                                    JOINT LeftFinger32
                                    {
                                        OFFSET   2.323470   0.000000   0.000000
                                        CHANNELS 3 Zrotation Xrotation Yrotation
                                        End Site
                                        {
                                            OFFSET   2.273050   0.000000   0.000000
                                        }
                                    }
                                }
                            }
                            JOINT LeftFinger4
                            {
                                OFFSET   7.435090   0.000000  -3.252850
                                CHANNELS 3 Zrotation Xrotation Yrotation
                                JOINT LeftFinger41
                                {
                                    OFFSET   3.717550   0.000000   0.000000
                                    CHANNELS 3 Zrotation Xrotation Yrotation
                                    JOINT LeftFinger42
                                    {
                                        OFFSET   1.858770   0.000000   0.000000
                                        CHANNELS 3 Zrotation Xrotation Yrotation
                                        End Site
                                        {
                                            OFFSET   1.818440   0.000000   0.000000
                                        }
                                    }
                                }
                            }
                        }
                    }
                }
            }
            JOINT RightCollar
            {
                OFFSET  -3.911910  19.017000  -0.467062
                CHANNELS 3 Zrotation Xrotation Yrotation
                JOINT RightShoulder
                {
                    OFFSET -10.383700   0.000014   0.000000
                    CHANNELS 3 Zrotation Xrotation Yrotation
                    JOINT RightElbow
                    {
                        OFFSET -26.662100   0.001225   0.001091
                        CHANNELS 3 Zrotation Xrotation Yrotation
                        JOINT RightWrist
                        {
                            OFFSET -28.869000  -0.000020  -0.000085
                            CHANNELS 3 Zrotation Xrotation Yrotation
                            JOINT RightFinger0
                            {
                                OFFSET  -2.044650  -2.323490   3.252850
                                CHANNELS 3 Zrotation Xrotation Yrotation
                                JOINT RightFinger01
                                {
                                    OFFSET  -3.088130   0.000000   0.000000
                                    CHANNELS 3 Zrotation Xrotation Yrotation
                                    JOINT RightFinger02
                                    {
                                        OFFSET  -2.639460   0.000000   0.000000
                                        CHANNELS 3 Zrotation Xrotation Yrotation
                                        End Site
                                        {
                                            OFFSET  -2.582190   0.000000   0.000000
                                        }
                                    }
                                }
                            }
                            JOINT RightFinger1
                            {
                                OFFSET  -8.364480   0.000000   3.252850
                                CHANNELS 3 Zrotation Xrotation Yrotation
                                JOINT RightFinger11
                                {
                                    OFFSET  -4.646930   0.000000   0.000000
                                    CHANNELS 3 Zrotation Xrotation Yrotation
                                    JOINT RightFinger12
                                    {
                                        OFFSET  -2.323470   0.000000   0.000000
                                        CHANNELS 3 Zrotation Xrotation Yrotation
                                        End Site
                                        {
                                            OFFSET  -2.273050   0.000000   0.000000
                                        }
                                    }
                                }
                            }
                            JOINT RightFinger2
                            {
                                OFFSET  -8.364480   0.000000   1.078090
                                CHANNELS 3 Zrotation Xrotation Yrotation
                                JOINT RightFinger21
                                {
                                    OFFSET  -5.111620   0.000000   0.000000
                                    CHANNELS 3 Zrotation Xrotation Yrotation
                                    JOINT RightFinger22
                                    {
                                        OFFSET  -2.788160   0.000000   0.000000
                                        CHANNELS 3 Zrotation Xrotation Yrotation
                                        End Site
                                        {
                                            OFFSET  -2.727660   0.000000   0.000000
                                        }
                                    }
                                }
                            }
                            JOINT RightFinger3
                            {
                                OFFSET  -7.899780   0.000000  -1.078090
                                CHANNELS 3 Zrotation Xrotation Yrotation
                                JOINT RightFinger31
                                {
                                    OFFSET  -4.646930   0.000000   0.000000
                                    CHANNELS 3 Zrotation Xrotation Yrotation
                                    JOINT RightFinger32
                                    {
                                        OFFSET  -2.323470   0.000000   0.000000
                                        CHANNELS 3 Zrotation Xrotation Yrotation
                                        End Site
                                        {
                                            OFFSET  -2.273050   0.000000   0.000000
                                        }
                                    }
                                }
                            }
                            JOINT RightFinger4
                            {
                                OFFSET  -7.435090   0.000000  -3.252850
                                CHANNELS 3 Zrotation Xrotation Yrotation
                                JOINT RightFinger41
                                {
                                    OFFSET  -3.717550   0.000000   0.000000
                                    CHANNELS 3 Zrotation Xrotation Yrotation
                                    JOINT RightFinger42
                                    {
                                        OFFSET  -1.858760   0.000000   0.000000
                                        CHANNELS 3 Zrotation Xrotation Yrotation
                                        End Site
                                        {
                                            OFFSET  -1.818440   0.000000   0.000000
                                        }
                                    }
                                }
                            }
                        }
                    }
                }
            }
        }
    }
    JOINT LeftHip
    {
        OFFSET   9.783030   0.000000   0.000000
        CHANNELS 3 Zrotation Xrotation Yrotation
        JOINT LeftKnee
        {
            OFFSET   0.000063 -41.789100   0.000608
            CHANNELS 3 Zrotation Xrotation Yrotation
            JOINT LeftAnkle
            {
                OFFSET   0.000048 -41.133200  -0.000184
                CHANNELS 3 Zrotation Xrotation Yrotation
                JOINT LeftToe
                {
                    OFFSET   0.000000  -6.358960  14.674500
                    CHANNELS 3 Zrotation Xrotation Yrotation
                    End Site
                    {
                        OFFSET   0.000000   0.000000   3.913200
                    }
                }
            }
        }
    }
    JOINT RightHip
    {
        OFFSET  -9.783030   0.000000   0.000000
        CHANNELS 3 Zrotation Xrotation Yrotation
        JOINT RightKnee
        {
            OFFSET   0.000071 -41.789100   0.001239
            CHANNELS 3 Zrotation Xrotation Yrotation
            JOINT RightAnkle
            {
                OFFSET   0.000037 -41.133200  -0.000166
                CHANNELS 3 Zrotation Xrotation Yrotation
                JOINT RightToe
                {
                    OFFSET   0.000000  -6.358960  14.674500
                    CHANNELS 3 Zrotation Xrotation Yrotation
                    End Site
                    {
                        OFFSET   0.000000   0.000000   3.913200
                    }
                }
            }
        }
    }
}
MOTION
Frames: 4
Frame Time:   0.016667
  2.328760  89.379500   3.368740  -4.887890 -15.988600  -0.575900   0.018304   8.779380   1.658230  -0.228145  17.555600   3.374170  -0.218576   1.560390   0.006868  -0.359815   3.164330   8.173260  -1.762000  -1.439750   1.675060 -71.312900  22.987400  -6.937550  -2.405660  -9.568460 -15.778400  16.657200  -4.336660   4.914710  35.888500  27.925900 -59.989200 -32.892600   0.001156   0.000780 -11.446300   0.001548  -0.012305 -31.966000   5.148990  -8.183760 -26.455600   0.000676   0.003091 -18.518900   0.000000   0.000230 -28.708400  -0.187378   0.342072 -39.406300  -0.000211   0.002216 -26.244600  -0.001736   0.000090 -28.642900  -0.186940   0.342313 -38.046700   0.001183  -0.003686 -25.339100   0.001766  -0.000583 -30.623100  -0.198673   0.335722 -45.935600   0.001766  -0.002179 -30.593100  -0.000510   0.000479   1.401000  -4.694400   3.244480  36.469800  -1.232610  62.427500 -33.523400 -33.798000  76.382100   4.427550  44.365000   6.186650 -59.043100  54.334400 108.296000 -15.695000   0.001037   0.000408 -12.847500   0.007023  -0.000325  39.550300   4.612320   5.561330  32.542500  -0.001224   0.002586  22.808400   0.010168   0.001974  28.788700   0.126460   0.229861  41.775900  -0.003557  -0.005913  27.822700  -0.003689   0.003336  27.401800  -0.039818  -0.077072  28.730800  -0.001150  -0.002605  19.134700  -0.000818   0.000718  45.897100  -2.986110  -2.890540  68.958700  -0.000681  -0.001274  45.926500   0.000076   0.002921   3.353860  19.913700   1.717690   0.129043   0.002828   0.897016  -0.542405  -4.718320  -3.383550   0.000000   0.000000  -0.000000   5.018480  16.649800  -1.836520  -2.373340   6.050220  -1.841600   1.199000  -6.668670   0.154167  -0.000000   0.000000   0.000000
  2.363860  89.374600   3.383700  -4.911660 -15.977300  -0.649686   0.019148   8.774050   1.636930  -0.222850  17.545100   3.330600  -0.209623   1.561200   0.006014  -0.345707   3.165080   8.157770  -1.775680  -1.432280   1.738610 -71.288900  23.005700  -6.917330  -2.425280  -9.638750 -15.779400  16.545500  -4.281750   4.914670  35.960900  28.086900 -60.122900 -32.874900   0.001431   0.000939 -11.437500   0.001502  -0.012003 -31.921800   5.155400  -8.207890 -26.420900   0.000656   0.003242 -18.494600  -0.000187   0.000374 -28.705900  -0.172315   0.314607 -39.300200  -0.000195   0.002213 -26.173900  -0.001719   0.000160 -28.637000  -0.171910   0.314831 -37.959100   0.001263  -0.003777 -25.280700   0.001706  -0.000376 -30.562500  -0.182459   0.308926 -45.844600   0.001561  -0.002137 -30.532500  -0.000835   0.000346   1.389330  -4.673980   3.302330  36.094200  -1.134200  62.508500 -33.822100 -34.079100  76.025200   4.230260  44.320400   6.249490 -59.043000  54.334400 108.296000 -15.695000   0.001144   0.000384 -12.847500   0.007160  -0.000227  39.645600   4.580950   5.503810  32.616900  -0.001222   0.002518  22.875500   0.010175   0.002007  28.790800   0.090945   0.165454  41.943700  -0.003564  -0.005949  27.934400  -0.003780   0.003283  27.427700  -0.072699  -0.140028  28.853700  -0.001146  -0.002580  19.216500  -0.000830   0.000787  45.958000  -3.007770  -2.905280  69.051500  -0.000774  -0.001262  45.988300   0.000102   0.002881   3.346340  19.917300   1.720510   0.104747   0.019012   0.932622  -0.540599  -4.740290  -3.350180   0.000000   0.000000  -0.000000   5.010890  16.623800  -1.830470  -2.407560   6.086360  -1.787370   1.224010  -6.686390   0.161738   0.000000   0.000000   0.000000
  2.398020  89.370400   3.396680  -4.932810 -15.963900  -0.717566   0.020196   8.765500   1.613460  -0.216698  17.528100   3.282530  -0.202637   1.562720   0.005220  -0.333564   3.167280   8.151320  -1.785250  -1.421430   1.799580 -71.260500  23.042700  -6.916210  -2.447830  -9.728460 -15.767200  16.464800  -4.184750   4.914360  36.014500  28.191400 -60.195400 -32.857200   0.001725   0.001201 -11.428600   0.001457  -0.011699 -31.860200   5.159670  -8.233840 -26.371500   0.000641   0.003383 -18.460100  -0.000379   0.000527 -28.704200  -0.150317   0.274492 -39.150900  -0.000175   0.002212 -26.074500  -0.001717   0.000241 -28.629700  -0.149963   0.274690 -37.840200   0.001370  -0.003864 -25.201500   0.001643  -0.000157 -30.476700  -0.158794   0.269765 -45.715700   0.001381  -0.002116 -30.446700  -0.001148   0.000218   1.380000  -4.650650   3.360830  35.756900  -1.048290  62.583200 -34.117400 -34.299200  75.680800   4.053610  44.273600   6.276340 -59.042900  54.334400 108.296000 -15.695000   0.001250   0.000360 -12.847500   0.007300  -0.000136  39.783100   4.548340   5.440180  32.726700  -0.001220   0.002450  22.974600   0.010185   0.002040  28.793600   0.062100   0.113026  42.200500  -0.003572  -0.005987  28.105500  -0.003872   0.003229  27.473800  -0.095464  -0.183557  29.074700  -0.001144  -0.002558  19.363700  -0.000842   0.000855  46.075600  -3.049710  -2.933570  69.230500  -0.000865  -0.001247  46.107500   0.000122   0.002841   3.330470  19.918700   1.723320   0.088673   0.034908   0.968602  -0.538532  -4.753960  -3.319960   0.000000   0.000000   0.000000   4.996470  16.596600  -1.827160  -2.435240   6.119240  -1.735110   1.248460  -6.702140   0.176791  -0.000000   0.000000   0.000000
  2.434040  89.368600   3.406950  -4.949010 -15.946400  -0.771858   0.020200   8.750620   1.594560  -0.213205  17.498400   3.243840  -0.190028   1.564340   0.004517  -0.312769   3.172070   8.135710  -1.785690  -1.404490   1.799390 -71.241000  23.087000  -6.927100  -2.439760  -9.745200 -15.698500  16.475100  -4.071270   4.919070  36.001300  28.165300 -60.146000 -32.869700   0.002031   0.001408 -11.434900   0.001419  -0.011380 -31.830400   5.160760  -8.243670 -26.347300   0.000631   0.003508 -18.443200  -0.000548   0.000679 -28.704100  -0.140128   0.255905 -39.084500  -0.000144   0.002242 -26.030200  -0.001739   0.000326 -28.628100  -0.139797   0.256086 -37.802300   0.001501  -0.003947 -25.176400   0.001584   0.000072 -30.436700  -0.147831   0.251565 -45.655500   0.001217  -0.002111 -30.406600  -0.001447   0.000114   1.374530  -4.610360   3.383570  35.561400  -1.001420  62.681000 -34.283400 -34.419100  75.377200   3.970360  44.142400   6.340490 -59.042800  54.334300 108.296000 -15.695000   0.001349   0.000437 -12.847500   0.007448  -0.000069  39.868500   4.519550   5.389630  32.793900  -0.001204   0.002411  23.035400   0.010188   0.002070  28.794900   0.060054   0.109054  42.367300  -0.003583  -0.006022  28.216600  -0.003963   0.003178  27.521600  -0.075480  -0.145176  29.311100  -0.001145  -0.002542  19.521200  -0.000853   0.000912  46.241100  -3.109160  -2.973080  69.482800  -0.000941  -0.001211  46.275500   0.000134   0.002807   3.301940  19.922900   1.737440   0.086321   0.018594   0.987055  -0.531856  -4.749950  -3.291170  -0.000000   0.000000  -0.000000   4.971270  16.568000  -1.819110  -2.446000   6.145500  -1.700880   1.270330  -6.714560   0.194379  -0.000000   0.000000  -0.000000
